<svg width="16" height="20" viewBox="0 0 16 20" fill="none" xmlns="http://www.w3.org/2000/svg">
<path d="M15.2 3.99996V18.8C15.2 19.4648 14.6648 20 14 20H1.20002C0.535209 20 0 19.4648 0 18.8V1.19995C0 0.535153 0.535209 0 1.20002 0H11.2" fill="#6888FF"/>
<path d="M11.2001 0V2.79996C11.2001 3.46476 11.7353 3.99996 12.4001 3.99996H15.2001L11.2001 0Z" fill="#A6C5FA"/>
<path fill-rule="evenodd" clip-rule="evenodd" d="M3.20599 8.39945C3.15299 8.3987 3.10036 8.4085 3.05117 8.42826C3.00199 8.44803 2.95722 8.47737 2.91947 8.51459C2.88172 8.55181 2.85175 8.59616 2.83129 8.64506C2.81083 8.69396 2.80029 8.74644 2.80029 8.79946C2.80029 8.85247 2.81083 8.90495 2.83129 8.95385C2.85175 9.00275 2.88172 9.0471 2.91947 9.08432C2.95722 9.12154 3.00199 9.15088 3.05117 9.17065C3.10036 9.19041 3.15299 9.20021 3.20599 9.19946H8.506H11.9998C12.0528 9.20021 12.1054 9.19041 12.1546 9.17065C12.2038 9.15088 12.2485 9.12154 12.2863 9.08432C12.324 9.0471 12.354 9.00275 12.3745 8.95385C12.3949 8.90495 12.4055 8.85247 12.4055 8.79946C12.4055 8.74644 12.3949 8.69396 12.3745 8.64506C12.354 8.59616 12.324 8.55181 12.2863 8.51459C12.2485 8.47737 12.2038 8.44803 12.1546 8.42826C12.1054 8.4085 12.0528 8.3987 11.9998 8.39945H8.506H3.20599V8.39945Z" fill="#F9F9F9"/>
<path fill-rule="evenodd" clip-rule="evenodd" d="M3.20599 9.99943C3.15299 9.99868 3.10036 10.0085 3.05117 10.0282C3.00199 10.048 2.95722 10.0773 2.91947 10.1146C2.88172 10.1518 2.85175 10.1961 2.83129 10.245C2.81083 10.2939 2.80029 10.3464 2.80029 10.3994C2.80029 10.4524 2.81083 10.5049 2.83129 10.5538C2.85175 10.6027 2.88172 10.6471 2.91947 10.6843C2.95722 10.7215 3.00199 10.7509 3.05117 10.7706C3.10036 10.7904 3.15299 10.8002 3.20599 10.7994H8.506H11.9998C12.0528 10.8002 12.1054 10.7904 12.1546 10.7706C12.2038 10.7509 12.2485 10.7215 12.2863 10.6843C12.324 10.6471 12.354 10.6027 12.3745 10.5538C12.3949 10.5049 12.4055 10.4524 12.4055 10.3994C12.4055 10.3464 12.3949 10.2939 12.3745 10.245C12.354 10.1961 12.324 10.1518 12.2863 10.1146C12.2485 10.0773 12.2038 10.048 12.1546 10.0282C12.1054 10.0085 12.0528 9.99868 11.9998 9.99943H8.506H3.20599V9.99943Z" fill="#F9F9F9"/>
<path fill-rule="evenodd" clip-rule="evenodd" d="M3.20599 13.1995C3.15299 13.1988 3.10036 13.2085 3.05117 13.2283C3.00199 13.2481 2.95722 13.2774 2.91947 13.3146C2.88172 13.3519 2.85175 13.3962 2.83129 13.4451C2.81083 13.494 2.80029 13.5465 2.80029 13.5995C2.80029 13.6525 2.81083 13.705 2.83129 13.7539C2.85175 13.8028 2.88172 13.8471 2.91947 13.8844C2.95722 13.9216 3.00199 13.9509 3.05117 13.9707C3.10036 13.9905 3.15299 14.0003 3.20599 13.9995H6.69975H8.79975C8.85276 14.0003 8.90538 13.9905 8.95457 13.9707C9.00376 13.9509 9.04853 13.9216 9.08628 13.8844C9.12402 13.8471 9.154 13.8028 9.17446 13.7539C9.19492 13.705 9.20545 13.6525 9.20545 13.5995C9.20545 13.5465 9.19492 13.494 9.17446 13.4451C9.154 13.3962 9.12402 13.3519 9.08628 13.3146C9.04853 13.2774 9.00376 13.2481 8.95457 13.2283C8.90538 13.2085 8.85276 13.1988 8.79975 13.1995H6.69975H3.20599V13.1995ZM10.3998 13.1995C10.3468 13.1988 10.2941 13.2085 10.2449 13.2283C10.1958 13.2481 10.151 13.2774 10.1132 13.3146C10.0755 13.3519 10.0455 13.3962 10.0251 13.4451C10.0046 13.494 9.99406 13.5465 9.99406 13.5995C9.99406 13.6525 10.0046 13.705 10.0251 13.7539C10.0455 13.8028 10.0755 13.8471 10.1132 13.8844C10.151 13.9216 10.1958 13.9509 10.2449 13.9707C10.2941 13.9905 10.3468 14.0003 10.3998 13.9995C10.4528 14.0003 10.5054 13.9905 10.5546 13.9707C10.6038 13.9509 10.6485 13.9216 10.6863 13.8844C10.724 13.8471 10.754 13.8028 10.7745 13.7539C10.7949 13.705 10.8055 13.6525 10.8055 13.5995C10.8055 13.5465 10.7949 13.494 10.7745 13.4451C10.754 13.3962 10.724 13.3519 10.6863 13.3146C10.6485 13.2774 10.6038 13.2481 10.5546 13.2283C10.5054 13.2085 10.4528 13.1988 10.3998 13.1995V13.1995Z" fill="#F9F9F9"/>
<path fill-rule="evenodd" clip-rule="evenodd" d="M3.20599 11.5995C3.15299 11.5988 3.10036 11.6086 3.05117 11.6283C3.00199 11.6481 2.95722 11.6774 2.91947 11.7147C2.88172 11.7519 2.85175 11.7962 2.83129 11.8451C2.81083 11.894 2.80029 11.9465 2.80029 11.9995C2.80029 12.0525 2.81083 12.105 2.83129 12.1539C2.85175 12.2028 2.88172 12.2472 2.91947 12.2844C2.95722 12.3216 3.00199 12.351 3.05117 12.3707C3.10036 12.3905 3.15299 12.4003 3.20599 12.3995H8.506H11.9998C12.0528 12.4003 12.1054 12.3905 12.1546 12.3707C12.2038 12.351 12.2485 12.3216 12.2863 12.2844C12.324 12.2472 12.354 12.2028 12.3745 12.1539C12.3949 12.105 12.4055 12.0525 12.4055 11.9995C12.4055 11.9465 12.3949 11.894 12.3745 11.8451C12.354 11.7962 12.324 11.7519 12.2863 11.7147C12.2485 11.6774 12.2038 11.6481 12.1546 11.6283C12.1054 11.6086 12.0528 11.5988 11.9998 11.5995H8.506H3.20599V11.5995Z" fill="#F9F9F9"/>
</svg>
