<svg width="70" height="70" viewBox="0 0 70 70" fill="none" xmlns="http://www.w3.org/2000/svg">
<path d="M70 70L50.4 70L50.4 67.2L70 67.2L70 70Z" fill="#F4744B"/>
<path d="M53.2 53.2L33.6 53.2L33.6 50.4L53.2 50.4L53.2 53.2Z" fill="#F4744B"/>
<path d="M36.4 36.4L16.8 36.4L16.8 33.6L36.4 33.6L36.4 36.4Z" fill="#F4744B"/>
<path d="M19.6 19.6L1.15587e-05 19.6L1.18034e-05 16.8L19.6 16.8L19.6 19.6Z" fill="#F4744B"/>
<path d="M53.2 50.4L53.2 70L50.4 70L50.4 50.4L53.2 50.4Z" fill="#F4744B"/>
<path d="M36.4 33.6L36.4 53.2L33.6 53.2L33.6 33.6L36.4 33.6Z" fill="#F4744B"/>
<path d="M19.6 16.8L19.6 36.4L16.8 36.4L16.8 16.8L19.6 16.8Z" fill="#F4744B"/>
<path d="M2.80001 1.27775e-06L2.80001 19.6L1.15587e-05 19.6L1.32722e-05 1.03296e-06L2.80001 1.27775e-06Z" fill="#F4744B"/>
</svg>
